<?xml version="1.0" encoding="UTF-8"?>
<svg id="Layer_1" data-name="Layer 1" xmlns="http://www.w3.org/2000/svg" viewBox="0 0 2000 200">
  <defs>
    <style>
      .cls-1 {
        fill: #567e4e;
      }
    </style>
  </defs>
  <path d="m81.81,112.8c-.08,0-.15.02-.22.02v-.02c-9.7-.64-18.12-10.87-18.13-18.38.16-5.81.51-12.78.82-13.92,5.4-30.19,28.05-54.39,57.41-62.01-10.5-5.42-22.4-8.5-35.01-8.5C44.39,10,10,44.39,10,86.67v68.36c0,14.75,11.96,26.71,26.71,26.71s26.71-11.96,26.71-26.71v-14.28c0-10.35,7.98-18.8,18.16-19.47v-.02c.08,0,.15.02.22.02,2.34,0,4.24-1.9,4.24-4.24s-1.9-4.24-4.24-4.24Z"/>
  <g>
    <path class="cls-1" d="m146.69,47.05c4.07,0,8.06.31,11.96.89-4.87-8.27-11.24-15.56-18.74-21.47-27.4,2.55-50.69,19.21-62.58,42.63,4.08-3.53,9.38-5.68,15.18-5.68,1.67,0,3.3.19,4.87.52,13.62-10.58,30.71-16.89,49.29-16.89Z"/>
    <path class="cls-1" d="m165.34,62.65c-6.86-1.9-14.07-2.94-21.53-2.94-13.23,0-25.71,3.2-36.72,8.86,5.29,4.27,8.69,10.79,8.69,18.1v7.75c0,7.5-8.43,17.74-18.13,18.38v.02c-.08,0-.15-.02-.22-.02-2.34,0-4.24,1.9-4.24,4.24s1.9,4.24,4.24,4.24c.08,0,.15-.02.22-.02v.02c9.83.65,17.61,8.54,18.13,18.4v15.35c0,14.75,11.96,26.71,26.71,26.71s26.71-11.96,26.71-26.71v-68.36c0-8.39-1.36-16.46-3.86-24.02Z"/>
  </g>
  <g>
    <path d="m278.78,57.94l46.22,99.12h-10.7l-15.59-32.61h-42.7l-15.44,32.61h-11.05l46.83-99.12h2.43Zm-1.25,21.06l-16.98,35.88h33.89l-16.9-35.88Z"/>
    <path d="m334.78,57.94h19.74c11.32,0,18.96.5,22.91,1.48,5.66,1.39,10.29,4.26,13.88,8.59,3.59,4.34,5.39,9.78,5.39,16.34s-1.75,12.05-5.26,16.34c-3.5,4.29-8.33,7.18-14.49,8.66-4.49,1.08-12.89,1.62-25.2,1.62h-7.08v46.09h-9.91V57.94Zm9.91,9.7v33.62l16.78.2c6.78,0,11.75-.62,14.89-1.85,3.14-1.23,5.62-3.23,7.41-5.99,1.8-2.76,2.7-5.84,2.7-9.25s-.9-6.35-2.7-9.11c-1.8-2.76-4.17-4.72-7.11-5.88-2.94-1.17-7.76-1.75-14.45-1.75h-17.52Z"/>
    <path d="m406.82,57.94h9.91v99.12h-9.91V57.94Z"/>
    <path d="m526.23,76.33l-7.82,6c-4.31-5.61-9.49-9.87-15.53-12.77s-12.68-4.35-19.91-4.35c-7.91,0-15.23,1.9-21.97,5.69-6.74,3.8-11.96,8.89-15.67,15.3-3.71,6.4-5.56,13.6-5.56,21.6,0,12.08,4.14,22.17,12.43,30.25,8.29,8.09,18.74,12.13,31.37,12.13,13.88,0,25.49-5.43,34.84-16.31l7.82,5.93c-4.94,6.29-11.11,11.15-18.5,14.59s-15.64,5.15-24.76,5.15c-17.34,0-31.02-5.77-41.04-17.32-8.4-9.75-12.6-21.52-12.6-35.31,0-14.51,5.09-26.72,15.26-36.62,10.17-9.91,22.92-14.86,38.24-14.86,9.25,0,17.61,1.83,25.07,5.49,7.46,3.66,13.57,8.79,18.33,15.4Z"/>
    <path d="m538.16,57.94h9.91v59.84c0,7.1.13,11.52.4,13.27.49,3.91,1.64,7.18,3.44,9.8,1.8,2.63,4.56,4.83,8.29,6.6,3.73,1.78,7.48,2.66,11.25,2.66,3.28,0,6.42-.7,9.43-2.09,3.01-1.39,5.53-3.32,7.55-5.79,2.02-2.47,3.5-5.46,4.45-8.96.67-2.52,1.01-7.68,1.01-15.5v-59.84h9.91v59.84c0,8.85-.87,16-2.59,21.46-1.73,5.46-5.19,10.21-10.38,14.25-5.19,4.04-11.47,6.06-18.83,6.06-8,0-14.85-1.91-20.55-5.73-5.71-3.82-9.52-8.87-11.46-15.16-1.21-3.86-1.82-10.83-1.82-20.89v-59.84Z"/>
    <path d="m623.21,57.94h19.74c11.01,0,18.46.45,22.37,1.35,5.88,1.35,10.67,4.24,14.35,8.67,3.68,4.43,5.53,9.88,5.53,16.36,0,5.4-1.27,10.14-3.81,14.24-2.54,4.09-6.17,7.19-10.88,9.28-4.72,2.09-11.23,3.16-19.54,3.2l35.65,46.02h-12.25l-35.65-46.02h-5.6v46.02h-9.91V57.94Zm9.91,9.7v33.69l17.08.14c6.61,0,11.51-.63,14.68-1.89,3.17-1.26,5.65-3.27,7.42-6.03s2.67-5.85,2.67-9.27-.9-6.34-2.7-9.06c-1.8-2.72-4.16-4.66-7.09-5.83-2.92-1.17-7.79-1.75-14.58-1.75h-17.48Z"/>
    <path d="m696.73,57.94h9.91v99.12h-9.91V57.94Z"/>
    <path d="m771.02,55.44c15.01,0,27.58,5.01,37.69,15.03,10.11,10.02,15.17,22.35,15.17,36.99s-5.05,26.82-15.14,36.93-22.4,15.16-36.92,15.16-27.11-5.03-37.22-15.09c-10.11-10.06-15.17-22.24-15.17-36.52,0-9.52,2.3-18.35,6.91-26.48,4.61-8.13,10.89-14.5,18.84-19.1,7.96-4.6,16.56-6.91,25.83-6.91Zm.44,9.64c-7.33,0-14.29,1.91-20.86,5.73s-11.7,8.97-15.39,15.44c-3.69,6.47-5.53,13.69-5.53,21.65,0,11.78,4.08,21.73,12.25,29.84,8.17,8.12,18.01,12.17,29.53,12.17,7.69,0,14.81-1.87,21.36-5.6,6.55-3.73,11.65-8.83,15.32-15.31s5.5-13.67,5.5-21.58-1.83-14.98-5.5-21.34-8.83-11.45-15.49-15.27-13.72-5.73-21.19-5.73Z"/>
    <path d="m900.43,57.94h19.13l38.12,99.12h-19.61l-7.76-20.42h-40.45l-8.06,20.42h-19.61l38.22-99.12Zm9.68,26.28l-13.3,34.03h26.52l-13.22-34.03Z"/>
    <path d="m966.69,57.94h20.01c10.83,0,18.63,1,23.42,3,4.78,2,8.56,5.23,11.32,9.7,2.76,4.47,4.14,9.83,4.14,16.07,0,6.92-1.81,12.67-5.42,17.25s-8.52,7.77-14.72,9.57c-3.64,1.03-10.27,1.55-19.88,1.55v41.98h-18.87V57.94Zm18.87,38.75h6c4.72,0,8-.34,9.84-1.01,1.84-.68,3.29-1.79,4.35-3.35s1.58-3.44,1.58-5.65c0-3.83-1.48-6.63-4.45-8.38-2.16-1.31-6.16-1.96-11.99-1.96h-5.32v20.35Z"/>
    <path d="m1037.17,57.94h18.73v99.12h-18.73V57.94Z"/>
    <path d="m1104.7,57.94h18.87v81.13h27.49v17.99h-46.36V57.94Z"/>
    <path d="m1158.55,57.94h18.73v99.12h-18.73V57.94Z"/>
    <path d="m1193.25,57.94h49.19v18.4h-30.46v17.99h30.46v18.13h-30.46v44.61h-18.73V57.94Z"/>
    <path d="m1253.77,57.94h54.11v18.46h-35.38v17.92h35.38v18.13h-35.38v26.08h35.38v18.53h-54.11V57.94Z"/>
    <path d="m1411.05,75.36l-13.2,12.58c-8.98-9.49-19.08-14.23-30.3-14.23-9.47,0-17.45,3.24-23.93,9.71s-9.73,14.46-9.73,23.94c0,6.61,1.44,12.48,4.31,17.6s6.93,9.15,12.19,12.07c5.25,2.92,11.09,4.38,17.5,4.38,5.47,0,10.48-1.02,15.01-3.07,4.53-2.05,9.51-5.77,14.95-11.16l12.79,13.35c-7.32,7.15-14.24,12.1-20.75,14.87-6.51,2.76-13.95,4.15-22.3,4.15-15.41,0-28.02-4.89-37.83-14.66-9.82-9.77-14.72-22.29-14.72-37.57,0-9.88,2.23-18.67,6.7-26.35s10.87-13.86,19.21-18.53c8.33-4.67,17.31-7.01,26.92-7.01,8.18,0,16.05,1.73,23.62,5.18,7.57,3.45,14.09,8.36,19.57,14.73Z"/>
    <path d="m1414.99,57.94h20.26l18.49,35.66,18.4-35.66h20l-29.01,56.2v42.92h-19v-42.92l-29.14-56.2Z"/>
    <path d="m1593.19,75.36l-13.2,12.58c-8.98-9.49-19.08-14.23-30.3-14.23-9.47,0-17.45,3.24-23.93,9.71s-9.73,14.46-9.73,23.94c0,6.61,1.44,12.48,4.31,17.6s6.93,9.15,12.19,12.07c5.25,2.92,11.09,4.38,17.5,4.38,5.47,0,10.48-1.02,15.01-3.07,4.53-2.05,9.51-5.77,14.95-11.16l12.79,13.35c-7.32,7.15-14.24,12.1-20.75,14.87-6.51,2.76-13.95,4.15-22.3,4.15-15.41,0-28.02-4.89-37.83-14.66-9.82-9.77-14.72-22.29-14.72-37.57,0-9.88,2.23-18.67,6.7-26.35s10.87-13.86,19.21-18.53c8.33-4.67,17.31-7.01,26.92-7.01,8.18,0,16.05,1.73,23.62,5.18,7.57,3.45,14.09,8.36,19.57,14.73Z"/>
    <path d="m1604.18,57.94h18.87v81.13h27.49v17.99h-46.36V57.94Z"/>
    <path d="m1659.44,57.94h54.11v18.46h-35.38v17.92h35.38v18.13h-35.38v26.08h35.38v18.53h-54.11V57.94Z"/>
    <path d="m1758.64,57.94h19.14v37.4h33.08v-37.4h19.07v99.12h-19.07v-43.46h-33.08v43.46h-19.14V57.94Z"/>
    <path d="m1846.38,57.94h18.93v64.1c0,5.52.48,9.43,1.45,11.71s2.56,4.12,4.79,5.49c2.22,1.37,4.91,2.05,8.05,2.05,3.32,0,6.19-.76,8.59-2.29,2.4-1.53,4.07-3.47,4.99-5.82.92-2.36,1.38-6.86,1.38-13.5v-61.74h18.93v59.09c0,9.97-.56,16.89-1.68,20.75-1.12,3.86-3.27,7.59-6.43,11.19-3.17,3.59-6.82,6.26-10.95,7.98-4.13,1.73-8.94,2.59-14.42,2.59-7.19,0-13.44-1.65-18.77-4.95-5.32-3.3-9.13-7.43-11.42-12.4-2.29-4.96-3.44-13.35-3.44-25.17v-59.09Z"/>
    <path d="m1929.87,157.06V57.94h15.58c9.04,0,15.65.58,19.83,1.75,5.94,1.57,10.66,4.49,14.17,8.76,3.51,4.27,5.26,9.3,5.26,15.09,0,3.77-.8,7.2-2.39,10.28-1.59,3.08-4.19,5.96-7.78,8.66,6.02,2.83,10.42,6.37,13.21,10.61,2.79,4.25,4.18,9.27,4.18,15.06s-1.44,10.65-4.32,15.23c-2.88,4.58-6.59,8.01-11.13,10.28-4.54,2.27-10.82,3.4-18.82,3.4h-27.79Zm18.87-81.13v20.89h4.13c4.6,0,8.02-.97,10.25-2.9,2.23-1.93,3.35-4.56,3.35-7.88,0-3.1-1.06-5.56-3.18-7.38s-5.34-2.73-9.67-2.73h-4.87Zm0,37.73v25.4h4.73c7.84,0,13.12-.99,15.84-2.96,2.72-1.98,4.09-4.85,4.09-8.62,0-4.27-1.6-7.64-4.8-10.11-3.2-2.47-8.51-3.71-15.95-3.71h-3.92Z"/>
  </g>
</svg>