<?xml version="1.0" encoding="UTF-8"?>
<!-- Generator: Adobe Illustrator 27.1.1, SVG Export Plug-In . SVG Version: 6.00 Build 0)  -->
<svg version="1.1" id="Layer_1" xmlns="http://www.w3.org/2000/svg" xmlns:xlink="http://www.w3.org/1999/xlink" x="0px" y="0px" viewBox="0 0 850 200" style="enable-background:new 0 0 850 200;" xml:space="preserve">
<style type="text/css">
	.st0{fill:#AFB1B2;}
	.st1{fill:#CC0000;}
	.st2{enable-background:new    ;}
	.st3{fill:#FFFFFF;}
</style>
<path class="st0" d="M81.8,112.8c-0.1,0-0.2,0-0.2,0v0c-9.7-0.6-18.1-10.9-18.1-18.4c0.2-5.8,0.5-12.8,0.8-13.9  c5.4-30.2,28.1-54.4,57.4-62c-10.5-5.4-22.4-8.5-35-8.5C44.4,10,10,44.4,10,86.7V155c0,14.8,12,26.7,26.7,26.7s26.7-12,26.7-26.7  v-14.3c0-10.4,8-18.8,18.2-19.5v0c0.1,0,0.2,0,0.2,0c2.3,0,4.2-1.9,4.2-4.2S84.1,112.8,81.8,112.8L81.8,112.8z"/>
<path class="st1" d="M146.7,47c4.1,0,8.1,0.3,12,0.9c-4.9-8.3-11.2-15.6-18.7-21.5C112.5,29,89.2,45.7,77.3,69.1  c4.1-3.5,9.4-5.7,15.2-5.7c1.7,0,3.3,0.2,4.9,0.5C111,53.4,128.1,47,146.7,47L146.7,47z"/>
<path class="st1" d="M165.3,62.7c-6.9-1.9-14.1-2.9-21.5-2.9c-13.2,0-25.7,3.2-36.7,8.9c5.3,4.3,8.7,10.8,8.7,18.1v7.8  c0,7.5-8.4,17.7-18.1,18.4v0c-0.1,0-0.2,0-0.2,0c-2.3,0-4.2,1.9-4.2,4.2s1.9,4.2,4.2,4.2c0.1,0,0.2,0,0.2,0v0  c9.8,0.7,17.6,8.5,18.1,18.4V155c0,14.8,12,26.7,26.7,26.7s26.7-12,26.7-26.7V86.7C169.2,78.3,167.8,70.2,165.3,62.7L165.3,62.7z"/>
<g class="st2">
	<path class="st3" d="M278.3,58.4l46.3,99.3h-10.7L298.3,125h-42.8l-15.5,32.7H229l46.9-99.3H278.3z M277.1,79.5l-17,35.9H294   L277.1,79.5z"/>
</g>
<g class="st2">
	<path class="st3" d="M333.7,58.4h19.8c11.3,0,19,0.5,22.9,1.5c5.7,1.4,10.3,4.3,13.9,8.6c3.6,4.3,5.4,9.8,5.4,16.4   c0,6.6-1.8,12.1-5.3,16.4c-3.5,4.3-8.3,7.2-14.5,8.7c-4.5,1.1-12.9,1.6-25.2,1.6h-7.1v46.2h-9.9V58.4z M343.6,68.1v33.7l16.8,0.2   c6.8,0,11.8-0.6,14.9-1.9c3.1-1.2,5.6-3.2,7.4-6c1.8-2.8,2.7-5.8,2.7-9.3c0-3.3-0.9-6.4-2.7-9.1c-1.8-2.8-4.2-4.7-7.1-5.9   c-2.9-1.2-7.8-1.8-14.5-1.8H343.6z"/>
</g>
<g class="st2">
	<path class="st3" d="M407.2,58.4h9.9v99.3h-9.9V58.4z"/>
</g>
<g class="st2">
	<path class="st3" d="M526.8,76.8l-7.8,6c-4.3-5.6-9.5-9.9-15.6-12.8s-12.7-4.4-19.9-4.4c-7.9,0-15.2,1.9-22,5.7   c-6.7,3.8-12,8.9-15.7,15.3c-3.7,6.4-5.6,13.6-5.6,21.6c0,12.1,4.1,22.2,12.4,30.3c8.3,8.1,18.8,12.1,31.4,12.1   c13.9,0,25.5-5.4,34.9-16.3l7.8,5.9c-4.9,6.3-11.1,11.2-18.5,14.6s-15.7,5.2-24.8,5.2c-17.4,0-31.1-5.8-41.1-17.3   c-8.4-9.8-12.6-21.5-12.6-35.4c0-14.5,5.1-26.8,15.3-36.7c10.2-9.9,23-14.9,38.3-14.9c9.3,0,17.6,1.8,25.1,5.5   C515.9,65,522,70.2,526.8,76.8z"/>
</g>
<g class="st2">
	<path class="st3" d="M539.5,58.4h9.9v59.9c0,7.1,0.1,11.5,0.4,13.3c0.5,3.9,1.6,7.2,3.4,9.8c1.8,2.6,4.6,4.8,8.3,6.6   c3.7,1.8,7.5,2.7,11.3,2.7c3.3,0,6.4-0.7,9.4-2.1c3-1.4,5.5-3.3,7.6-5.8c2-2.5,3.5-5.5,4.5-9c0.7-2.5,1-7.7,1-15.5V58.4h9.9v59.9   c0,8.9-0.9,16-2.6,21.5c-1.7,5.5-5.2,10.2-10.4,14.3s-11.5,6.1-18.9,6.1c-8,0-14.9-1.9-20.6-5.7c-5.7-3.8-9.5-8.9-11.5-15.2   c-1.2-3.9-1.8-10.8-1.8-20.9V58.4z"/>
	<path class="st3" d="M623.2,58.4H643c11,0,18.5,0.5,22.4,1.4c5.9,1.4,10.7,4.2,14.4,8.7s5.5,9.9,5.5,16.4c0,5.4-1.3,10.2-3.8,14.3   c-2.5,4.1-6.2,7.2-10.9,9.3c-4.7,2.1-11.2,3.2-19.6,3.2l35.7,46.1h-12.3l-35.7-46.1h-5.6v46.1h-9.9V58.4z M633.2,68.1v33.7   l17.1,0.1c6.6,0,11.5-0.6,14.7-1.9c3.2-1.3,5.7-3.3,7.4-6s2.7-5.9,2.7-9.3c0-3.3-0.9-6.4-2.7-9.1c-1.8-2.7-4.2-4.7-7.1-5.8   c-2.9-1.2-7.8-1.8-14.6-1.8H633.2z"/>
</g>
<g class="st2">
	<path class="st3" d="M698.2,58.4h9.9v99.3h-9.9V58.4z"/>
</g>
<g class="st2">
	<path class="st3" d="M772.6,55.9c15,0,27.6,5,37.7,15c10.1,10,15.2,22.4,15.2,37c0,14.5-5.1,26.9-15.2,37s-22.4,15.2-37,15.2   c-14.7,0-27.1-5-37.3-15.1C726,134.9,721,122.7,721,108.4c0-9.5,2.3-18.4,6.9-26.5c4.6-8.1,10.9-14.5,18.9-19.1   C754.7,58.2,763.4,55.9,772.6,55.9z M773.1,65.5c-7.3,0-14.3,1.9-20.9,5.7c-6.6,3.8-11.7,9-15.4,15.5c-3.7,6.5-5.5,13.7-5.5,21.7   c0,11.8,4.1,21.8,12.3,29.9c8.2,8.1,18,12.2,29.6,12.2c7.7,0,14.8-1.9,21.4-5.6s11.7-8.8,15.3-15.3c3.7-6.5,5.5-13.7,5.5-21.6   c0-7.9-1.8-15-5.5-21.4c-3.7-6.4-8.8-11.5-15.5-15.3S780.6,65.5,773.1,65.5z"/>
</g>
</svg>